<svg xmlns="http://www.w3.org/2000/svg" xmlns:xlink="http://www.w3.org/1999/xlink" width="500" zoomAndPan="magnify" viewBox="0 0 375 374.999991" height="500" preserveAspectRatio="xMidYMid meet" version="1.0"><defs><g/><clipPath id="608557b11e"><path d="M 19.03125 33.699219 L 355.78125 33.699219 L 355.78125 271 L 19.03125 271 Z M 19.03125 33.699219 " clip-rule="nonzero"/></clipPath><clipPath id="8841c819b8"><path d="M 132 292 L 180 292 L 180 338.949219 L 132 338.949219 Z M 132 292 " clip-rule="nonzero"/></clipPath><clipPath id="a7b7b9a777"><path d="M 253 292 L 301 292 L 301 338.949219 L 253 338.949219 Z M 253 292 " clip-rule="nonzero"/></clipPath><clipPath id="cf0e08913f"><path d="M 169.269531 83 L 280.269531 83 L 280.269531 211 L 169.269531 211 Z M 169.269531 83 " clip-rule="nonzero"/></clipPath></defs><rect x="-37.5" width="450" fill="#ffffff" y="-37.499999" height="449.999989" fill-opacity="1"/><rect x="-37.5" width="450" fill="#ffffff" y="-37.499999" height="449.999989" fill-opacity="1"/><rect x="-37.5" width="450" fill="#ffffff" y="-37.499999" height="449.999989" fill-opacity="1"/><g clip-path="url(#608557b11e)"><path fill="#ff914d" d="M 355.5 74.925781 L 95.511719 74.925781 L 86.996094 41.066406 C 85.902344 36.722656 81.992188 33.664062 77.503906 33.664062 L 29.023438 33.664062 C 23.621094 33.664062 19.242188 38.050781 19.242188 43.453125 C 19.242188 48.863281 23.621094 53.242188 29.023438 53.242188 L 69.878906 53.242188 L 122.632812 263.234375 C 123.730469 267.59375 127.636719 270.636719 132.125 270.636719 L 301.546875 270.636719 C 306.941406 270.636719 311.324219 266.257812 311.324219 260.859375 C 311.324219 255.453125 306.941406 251.070312 301.546875 251.070312 L 139.753906 251.070312 L 131.960938 220.066406 L 319.617188 220.066406 L 355.5 74.925781 " fill-opacity="1" fill-rule="nonzero"/></g><g clip-path="url(#8841c819b8)"><path fill="#ff914d" d="M 155.824219 292.085938 C 142.894531 292.085938 132.421875 302.574219 132.421875 315.503906 C 132.421875 328.4375 142.894531 338.914062 155.824219 338.914062 C 168.75 338.914062 179.238281 328.4375 179.238281 315.503906 C 179.238281 302.574219 168.75 292.085938 155.824219 292.085938 " fill-opacity="1" fill-rule="nonzero"/></g><g clip-path="url(#a7b7b9a777)"><path fill="#ff914d" d="M 277.191406 292.085938 C 264.277344 292.085938 253.792969 302.574219 253.792969 315.503906 C 253.792969 328.4375 264.277344 338.914062 277.191406 338.914062 C 290.121094 338.914062 300.605469 328.4375 300.605469 315.503906 C 300.605469 302.574219 290.121094 292.085938 277.191406 292.085938 " fill-opacity="1" fill-rule="nonzero"/></g><g clip-path="url(#cf0e08913f)"><path fill="#008037" d="M 170.511719 210.042969 C 170.972656 210.421875 171.5 210.632812 172.097656 210.683594 C 172.691406 210.730469 173.246094 210.605469 173.765625 210.308594 L 278.929688 149.59375 C 279.148438 149.46875 279.347656 149.316406 279.523438 149.140625 C 279.703125 148.960938 279.855469 148.761719 279.980469 148.542969 C 280.105469 148.328125 280.203125 148.097656 280.265625 147.851562 C 280.332031 147.609375 280.363281 147.363281 280.363281 147.109375 C 280.363281 146.859375 280.332031 146.609375 280.265625 146.367188 C 280.203125 146.125 280.105469 145.894531 279.980469 145.675781 C 279.855469 145.457031 279.703125 145.261719 279.523438 145.082031 C 279.347656 144.902344 279.148438 144.75 278.929688 144.625 L 173.765625 83.914062 C 173.246094 83.613281 172.691406 83.488281 172.09375 83.539062 C 171.5 83.585938 170.972656 83.800781 170.511719 84.179688 C 170.046875 84.558594 169.734375 85.035156 169.570312 85.609375 C 169.40625 86.183594 169.421875 86.753906 169.613281 87.316406 L 189.894531 147.109375 L 169.613281 206.902344 C 169.421875 207.46875 169.410156 208.039062 169.574219 208.613281 C 169.738281 209.1875 170.050781 209.664062 170.511719 210.042969 Z M 170.511719 210.042969 " fill-opacity="1" fill-rule="nonzero"/></g><g fill="#008037" fill-opacity="1"><g transform="translate(99.336451, 331.255056)"><g><path d="M 21.171875 -5.171875 C 21.953125 -5.171875 22.601562 -4.90625 23.125 -4.375 C 23.65625 -3.851562 23.921875 -3.25 23.921875 -2.5625 C 23.921875 -1.8125 23.65625 -1.195312 23.125 -0.71875 C 22.601562 -0.238281 21.953125 0 21.171875 0 L 6.109375 0 C 5.328125 0 4.675781 -0.257812 4.15625 -0.78125 C 3.632812 -1.3125 3.375 -1.960938 3.375 -2.734375 L 3.375 -28.71875 C 3.375 -29.5 3.632812 -30.148438 4.15625 -30.671875 C 4.675781 -31.203125 5.328125 -31.46875 6.109375 -31.46875 L 21.171875 -31.46875 C 21.953125 -31.46875 22.601562 -31.21875 23.125 -30.71875 C 23.65625 -30.226562 23.921875 -29.59375 23.921875 -28.8125 C 23.921875 -28.0625 23.664062 -27.453125 23.15625 -26.984375 C 22.644531 -26.523438 21.984375 -26.296875 21.171875 -26.296875 L 8.984375 -26.296875 L 8.984375 -18.65625 L 19.15625 -18.65625 C 19.925781 -18.65625 20.570312 -18.40625 21.09375 -17.90625 C 21.625 -17.414062 21.890625 -16.78125 21.890625 -16 C 21.890625 -15.25 21.632812 -14.640625 21.125 -14.171875 C 20.613281 -13.710938 19.957031 -13.484375 19.15625 -13.484375 L 8.984375 -13.484375 L 8.984375 -5.171875 Z M 21.171875 -5.171875 "/></g></g></g><g fill="#008037" fill-opacity="1"><g transform="translate(139.570093, 331.255056)"><g><path d="M 27.234375 -31.46875 C 27.960938 -31.46875 28.550781 -31.226562 29 -30.75 C 29.445312 -30.269531 29.671875 -29.671875 29.671875 -28.953125 L 29.671875 -2.734375 C 29.671875 -1.960938 29.40625 -1.3125 28.875 -0.78125 C 28.351562 -0.257812 27.703125 0 26.921875 0 C 26.503906 0 26.09375 -0.0664062 25.6875 -0.203125 C 25.28125 -0.335938 24.988281 -0.523438 24.8125 -0.765625 L 8.3125 -21.71875 L 8.3125 -2.515625 C 8.3125 -1.796875 8.078125 -1.195312 7.609375 -0.71875 C 7.148438 -0.238281 6.546875 0 5.796875 0 C 5.078125 0 4.492188 -0.238281 4.046875 -0.71875 C 3.597656 -1.195312 3.375 -1.796875 3.375 -2.515625 L 3.375 -28.71875 C 3.375 -29.5 3.632812 -30.148438 4.15625 -30.671875 C 4.675781 -31.203125 5.328125 -31.46875 6.109375 -31.46875 C 6.554688 -31.46875 7 -31.375 7.4375 -31.1875 C 7.875 -31.007812 8.195312 -30.773438 8.40625 -30.484375 L 24.765625 -9.625 L 24.765625 -28.953125 C 24.765625 -29.671875 24.992188 -30.269531 25.453125 -30.75 C 25.921875 -31.226562 26.515625 -31.46875 27.234375 -31.46875 Z M 27.234375 -31.46875 "/></g></g></g><g fill="#008037" fill-opacity="1"><g transform="translate(187.131088, 331.255056)"><g/></g></g><g fill="#008037" fill-opacity="1"><g transform="translate(214.23842, 331.255056)"><g><path d="M 26.5625 -17 C 27.34375 -17 27.988281 -16.734375 28.5 -16.203125 C 29.007812 -15.679688 29.265625 -15.03125 29.265625 -14.25 L 29.265625 -4.71875 C 29.265625 -3.664062 28.800781 -2.859375 27.875 -2.296875 C 24.9375 -0.460938 21.710938 0.453125 18.203125 0.453125 C 15.234375 0.453125 12.488281 -0.269531 9.96875 -1.71875 C 7.457031 -3.175781 5.46875 -5.140625 4 -7.609375 C 2.53125 -10.085938 1.796875 -12.796875 1.796875 -15.734375 C 1.796875 -18.671875 2.53125 -21.375 4 -23.84375 C 5.46875 -26.320312 7.457031 -28.285156 9.96875 -29.734375 C 12.488281 -31.191406 15.234375 -31.921875 18.203125 -31.921875 C 21.171875 -31.921875 23.75 -31.320312 25.9375 -30.125 C 26.382812 -29.882812 26.71875 -29.566406 26.9375 -29.171875 C 27.164062 -28.785156 27.28125 -28.367188 27.28125 -27.921875 C 27.28125 -27.171875 27.03125 -26.515625 26.53125 -25.953125 C 26.039062 -25.398438 25.4375 -25.125 24.71875 -25.125 C 24.269531 -25.125 23.773438 -25.242188 23.234375 -25.484375 C 21.617188 -26.171875 19.941406 -26.515625 18.203125 -26.515625 C 16.285156 -26.515625 14.515625 -26.023438 12.890625 -25.046875 C 11.273438 -24.078125 9.992188 -22.769531 9.046875 -21.125 C 8.109375 -19.476562 7.640625 -17.679688 7.640625 -15.734375 C 7.640625 -13.785156 8.109375 -11.984375 9.046875 -10.328125 C 9.992188 -8.679688 11.273438 -7.367188 12.890625 -6.390625 C 14.515625 -5.421875 16.285156 -4.9375 18.203125 -4.9375 C 19.046875 -4.9375 19.945312 -5.007812 20.90625 -5.15625 C 21.863281 -5.3125 22.703125 -5.507812 23.421875 -5.75 L 23.421875 -11.59375 L 19.1875 -11.59375 C 18.414062 -11.59375 17.765625 -11.847656 17.234375 -12.359375 C 16.710938 -12.867188 16.453125 -13.515625 16.453125 -14.296875 C 16.453125 -15.078125 16.710938 -15.722656 17.234375 -16.234375 C 17.765625 -16.742188 18.414062 -17 19.1875 -17 Z M 26.5625 -17 "/></g></g></g><g fill="#008037" fill-opacity="1"><g transform="translate(260.046256, 331.255056)"><g><path d="M 32.328125 -15.734375 C 32.328125 -12.765625 31.664062 -10.039062 30.34375 -7.5625 C 29.019531 -5.09375 27.195312 -3.140625 24.875 -1.703125 C 22.550781 -0.265625 19.9375 0.453125 17.03125 0.453125 C 14.125 0.453125 11.507812 -0.265625 9.1875 -1.703125 C 6.863281 -3.140625 5.050781 -5.09375 3.75 -7.5625 C 2.445312 -10.039062 1.796875 -12.765625 1.796875 -15.734375 C 1.796875 -18.703125 2.445312 -21.421875 3.75 -23.890625 C 5.050781 -26.359375 6.863281 -28.3125 9.1875 -29.75 C 11.507812 -31.195312 14.125 -31.921875 17.03125 -31.921875 C 19.9375 -31.921875 22.550781 -31.195312 24.875 -29.75 C 27.195312 -28.3125 29.019531 -26.359375 30.34375 -23.890625 C 31.664062 -21.421875 32.328125 -18.703125 32.328125 -15.734375 Z M 26.484375 -15.734375 C 26.484375 -17.742188 26.078125 -19.5625 25.265625 -21.1875 C 24.453125 -22.820312 23.328125 -24.117188 21.890625 -25.078125 C 20.453125 -26.035156 18.832031 -26.515625 17.03125 -26.515625 C 15.207031 -26.515625 13.582031 -26.039062 12.15625 -25.09375 C 10.738281 -24.15625 9.628906 -22.863281 8.828125 -21.21875 C 8.035156 -19.570312 7.640625 -17.742188 7.640625 -15.734375 C 7.640625 -13.722656 8.035156 -11.894531 8.828125 -10.25 C 9.628906 -8.601562 10.738281 -7.304688 12.15625 -6.359375 C 13.582031 -5.410156 15.207031 -4.9375 17.03125 -4.9375 C 18.832031 -4.9375 20.453125 -5.414062 21.890625 -6.375 C 23.328125 -7.34375 24.453125 -8.640625 25.265625 -10.265625 C 26.078125 -11.898438 26.484375 -13.722656 26.484375 -15.734375 Z M 26.484375 -15.734375 "/></g></g></g></svg>